<svg width="49" height="50" viewBox="0 0 49 50" fill="none" xmlns="http://www.w3.org/2000/svg">
<circle cx="24.4578" cy="25.1767" r="24.4578" fill="url(#paint0_linear_35_55)"/>
<path d="M30.0467 22.4436C30.0467 24.7537 29.2457 26.9923 27.7802 28.7781C26.3147 30.5638 24.2754 31.7861 22.0097 32.2368C19.744 32.6875 17.3921 32.3386 15.3548 31.2496C13.3175 30.1607 11.7208 28.399 10.8367 26.2647C9.95269 24.1305 9.83603 21.7558 10.5066 19.5451C11.1772 17.3345 12.5935 15.4248 14.5143 14.1414C16.4351 12.858 18.7414 12.2803 21.0404 12.5067C23.3393 12.7331 25.4887 13.7497 27.1222 15.3832L25.0362 17.4691C23.8853 16.3183 22.371 15.602 20.7512 15.4425C19.1315 15.283 17.5065 15.69 16.1532 16.5942C14.7999 17.4985 13.8021 18.844 13.3296 20.4015C12.8571 21.959 12.9393 23.6321 13.5622 25.1358C14.185 26.6395 15.31 27.8807 16.7454 28.648C18.1808 29.4152 19.8378 29.661 21.4341 29.3435C23.0305 29.0259 24.4673 28.1647 25.4998 26.9066C26.5323 25.6485 27.0967 24.0712 27.0967 22.4436H30.0467Z" fill="white"/>
<path d="M18.3807 27.9721C18.2814 25.6642 18.9855 23.3932 20.3729 21.5462C21.7604 19.6992 23.7453 18.3903 25.9895 17.8427C28.2338 17.2951 30.5985 17.5426 32.6807 18.5431C34.7629 19.5435 36.4338 21.235 37.4087 23.3293C38.3836 25.4236 38.6022 27.7911 38.0272 30.0285C37.4522 32.2659 36.1192 34.2347 34.2554 35.5994C32.3915 36.9642 30.1121 37.6404 27.8056 37.513C25.499 37.3855 23.308 36.4623 21.6058 34.9005L23.6003 32.7268C24.7995 33.8272 26.3432 34.4777 27.9683 34.5675C29.5934 34.6573 31.1994 34.1808 32.5126 33.2193C33.8258 32.2577 34.7649 30.8706 35.1701 29.2942C35.5752 27.7179 35.4212 26.0498 34.7343 24.5742C34.0474 23.0987 32.8702 21.907 31.4031 21.2021C29.9361 20.4972 28.27 20.3229 26.6888 20.7087C25.1076 21.0945 23.7091 22.0166 22.7316 23.318C21.7541 24.6193 21.258 26.2193 21.3279 27.8454L18.3807 27.9721Z" fill="white"/>
<defs>
<linearGradient id="paint0_linear_35_55" x1="5.18505" y1="10.0129" x2="24.4578" y2="49.6344" gradientUnits="userSpaceOnUse">
<stop stop-color="#FABD61"/>
<stop offset="1" stop-color="#F59855"/>
</linearGradient>
</defs>
</svg>
